<svg xmlns="http://www.w3.org/2000/svg" viewBox="0 0 500 500"><g id="freepik--Floor--inject-2"><path d="M459.39,444.55c-134.15.61-284.63.62-418.78,0,134.15-.62,284.63-.61,418.78,0Z" style="fill:#263238"></path></g><g id="freepik--Device--inject-2"><path d="M442.27,63h-169a17.26,17.26,0,0,0-17.1,17.42v348a17.27,17.27,0,0,0,17.1,17.42h169a17.28,17.28,0,0,0,17.12-17.42v-348A17.27,17.27,0,0,0,442.27,63Zm6.43,354.67c0,9.16-6.86,16.57-15.32,16.57H282.14c-8.48,0-15.34-7.41-15.34-16.57V93.57c0-18.66,6.86-19.57,15.34-19.57h30.29c1.76,0,3.2,2,3.2,4.48v1.07c0,5.81,3.18,5.83,7.09,5.83h70.06c3.94,0,7.09,0,7.09-5.83V78.48c0-2.48,1.42-4.48,3.21-4.48h30.3c8.46,0,15.32,2.48,15.32,19.57Z" style="fill:#263238"></path><path d="M367.31,78.13H348.2A1.18,1.18,0,0,1,347,77h0a1.18,1.18,0,0,1,1.18-1.18h19.11A1.18,1.18,0,0,1,368.49,77h0A1.18,1.18,0,0,1,367.31,78.13Z" style="fill:#fff"></path><path d="M448.71,93.57V417.63c0,9.16-6.86,16.57-15.32,16.57H282.15c-8.48,0-15.34-7.41-15.34-16.57V93.57c0-18.66,6.86-19.57,15.34-19.57h30.29c1.76,0,3.2,2,3.2,4.48v1.07c0,5.81,3.18,5.83,7.09,5.83h70.06c3.94,0,7.09,0,7.09-5.83V78.48c0-2.48,1.42-4.48,3.21-4.48h30.3C441.85,74,448.71,76.48,448.71,93.57Z" style="fill:#fff"></path><polygon points="285.22 115.21 279.84 110.17 285.22 105.14 286.05 106.03 281.63 110.17 286.05 114.32 285.22 115.21" style="fill:#c7c7c7"></polygon><path d="M434.62,107a1.06,1.06,0,1,1-1.06-1.06A1.05,1.05,0,0,1,434.62,107Z" style="fill:#c7c7c7"></path><path d="M434.62,110.8a1.06,1.06,0,1,1-1.06-1.06A1.05,1.05,0,0,1,434.62,110.8Z" style="fill:#c7c7c7"></path><path d="M434.62,114.56a1.06,1.06,0,1,1-1.06-1.06A1.06,1.06,0,0,1,434.62,114.56Z" style="fill:#c7c7c7"></path><path d="M336.38,110.57a2.94,2.94,0,0,1,2.94-2.88,3,3,0,0,1,1.84.62.46.46,0,0,1-.56.73,2,2,0,0,0-1.28-.44,2.08,2.08,0,0,0-1.44.58,1.93,1.93,0,0,0,0,2.78,2.11,2.11,0,0,0,1.44.57,2,2,0,0,0,1.28-.44.49.49,0,0,1,.64.09.47.47,0,0,1-.08.64,3,3,0,0,1-1.84.63A2.93,2.93,0,0,1,336.38,110.57Z" style="fill:#c7c7c7"></path><path d="M343,112.86a2,2,0,0,1-.55-1.41,2,2,0,0,1,.55-1.39,1.85,1.85,0,0,1,1.37-.61,1.77,1.77,0,0,1,1.34.61,2,2,0,0,1,.56,1.39,1.94,1.94,0,0,1-.56,1.41,1.77,1.77,0,0,1-1.34.61A1.85,1.85,0,0,1,343,112.86Zm.32-1.41a1.3,1.3,0,0,0,.28.85,1.12,1.12,0,0,0,.77.3,1.07,1.07,0,0,0,.74-.3,1.29,1.29,0,0,0,0-1.68,1.17,1.17,0,0,0-.74-.3,1.23,1.23,0,0,0-.77.3A1.3,1.3,0,0,0,343.32,111.45Z" style="fill:#c7c7c7"></path><path d="M351,111.1V113a.43.43,0,0,1-.42.43.44.44,0,0,1-.43-.43V111.1a.83.83,0,0,0-.83-.8.82.82,0,0,0-.8.83V113s0,0,0,.06v0a.13.13,0,0,1,0,.05v0a.47.47,0,0,1-.4.26H348a.44.44,0,0,1-.34-.42v-1.89h0v-1.24a.43.43,0,0,1,.81-.19,1.68,1.68,0,0,1,2.11.31,1.64,1.64,0,0,1,1.25-.55,1.68,1.68,0,0,1,1.67,1.68V113a.43.43,0,1,1-.86,0v-1.89a.82.82,0,0,0-.81-.83A.84.84,0,0,0,351,111.1Z" style="fill:#c7c7c7"></path><path d="M355.24,114.52v-3.06h0v-1.58a.42.42,0,0,1,.42-.42.43.43,0,0,1,.44.33,2,2,0,1,1,1.09,3.66,1.84,1.84,0,0,1-1.07-.33v1.41a.45.45,0,0,1-.46.43A.44.44,0,0,1,355.24,114.52Zm.88-3.07a1,1,0,0,0,.31.8,1,1,0,0,0,.76.34,1,1,0,0,0,.75-.34,1.16,1.16,0,0,0,.31-.8,1.24,1.24,0,0,0-.31-.8,1,1,0,0,0-.75-.33,1,1,0,0,0-.76.33A1.1,1.1,0,0,0,356.12,111.45Z" style="fill:#c7c7c7"></path><path d="M362.1,113.45a1.68,1.68,0,0,1-1.66-1.67v-1.91a.43.43,0,0,1,.42-.42.42.42,0,0,1,.42.42v1.91a.82.82,0,0,0,.82.82.83.83,0,0,0,.84-.82v-1.91a.42.42,0,0,1,.42-.42.45.45,0,0,1,.43.42v1.91A1.7,1.7,0,0,1,362.1,113.45Z" style="fill:#c7c7c7"></path><path d="M367.22,109.89a.45.45,0,0,1-.45.44h-.2v2.23a.45.45,0,0,1,0,.89.89.89,0,0,1-.88-.89v-2.23h-.24a.44.44,0,0,1-.44-.44.44.44,0,0,1,.44-.44h.24v-1.16a.44.44,0,0,1,.44-.44.43.43,0,0,1,.44.44v1.16h.2A.45.45,0,0,1,367.22,109.89Z" style="fill:#c7c7c7"></path><path d="M368,111.45a2,2,0,0,1,2-2,1.91,1.91,0,0,1,1.93,1.85v0s0,.06,0,.07a.37.37,0,0,1-.41.32h-2.55a1,1,0,0,0,.28.53,1.19,1.19,0,0,0,.76.36,1.27,1.27,0,0,0,.83-.2.46.46,0,0,1,.6,0,.36.36,0,0,1,0,.52,2,2,0,0,1-3.38-1.47Zm.87-.4h2.27a1.3,1.3,0,0,0-1.19-.84A1.12,1.12,0,0,0,368.89,111.05Z" style="fill:#c7c7c7"></path><path d="M375.47,109.87a.43.43,0,0,1-.43.43.74.74,0,0,0-.48.15,1.09,1.09,0,0,0-.36.38,2.63,2.63,0,0,0-.33.67V113a.44.44,0,0,1-.44.43A.43.43,0,0,1,373,113v-3.15a.41.41,0,0,1,.42-.41.43.43,0,0,1,.44.41v.06a.85.85,0,0,1,.17-.16,1.7,1.7,0,0,1,1-.31A.42.42,0,0,1,375.47,109.87Z" style="fill:#c7c7c7"></path><path d="M376.33,112.3a.42.42,0,0,1,.6-.06,1.45,1.45,0,0,0,.88.35,1.08,1.08,0,0,0,.54-.15.34.34,0,0,0,.14-.24.15.15,0,0,0,0-.08s0-.06-.11-.1a1.73,1.73,0,0,0-.63-.22h0a3,3,0,0,1-.7-.21,1.35,1.35,0,0,1-.55-.46,1,1,0,0,1-.14-.51,1.13,1.13,0,0,1,.48-.88,1.71,1.71,0,0,1,1-.29,2,2,0,0,1,1.2.44.44.44,0,0,1,.13.59.43.43,0,0,1-.6.11,1.33,1.33,0,0,0-.73-.29.81.81,0,0,0-.48.14c-.1.07-.13.14-.13.18a.1.1,0,0,0,0,.07l.08.08a1.84,1.84,0,0,0,.59.19h0a2.62,2.62,0,0,1,.75.23,1.28,1.28,0,0,1,.57.47,1.08,1.08,0,0,1,.15.53,1.16,1.16,0,0,1-.51.93,1.77,1.77,0,0,1-1,.32,2.32,2.32,0,0,1-1.43-.56A.42.42,0,0,1,376.33,112.3Z" style="fill:#c7c7c7"></path><g id="freepik--u5Zjqx--inject-2"><path d="M307.21,81.28l-.29.29-.17.17a4,4,0,0,0-5.64,0l-.16-.16-.29-.29h0l0,0,.37-.33a4.28,4.28,0,0,1,.86-.54A4.59,4.59,0,0,1,303,80l.57-.07h.5l.38,0a4.23,4.23,0,0,1,1,.25,4.94,4.94,0,0,1,.7.33,3.85,3.85,0,0,1,.67.47l.31.28Z" style="fill:#c7c7c7"></path><path d="M302,82.66l-.47-.46a3.25,3.25,0,0,1,1.89-.94,3.31,3.31,0,0,1,2.83.93l-.47.47a2.57,2.57,0,0,0-1.89-.78A2.61,2.61,0,0,0,302,82.66Z" style="fill:#c7c7c7"></path><path d="M305.36,83.12c-.15.15-.3.31-.46.46a1.38,1.38,0,0,0-1.94,0c-.15-.15-.31-.3-.46-.46A2,2,0,0,1,305.36,83.12Z" style="fill:#c7c7c7"></path><path d="M304.35,84a.42.42,0,0,1-.42.42.42.42,0,0,1,0-.84A.42.42,0,0,1,304.35,84Z" style="fill:#c7c7c7"></path></g><path d="M278.67,82.17a1.21,1.21,0,1,1,1.2,1.2A1.21,1.21,0,0,1,278.67,82.17Z" style="fill:#c7c7c7"></path><path d="M282.46,82.17a1.21,1.21,0,1,1,1.21,1.2A1.21,1.21,0,0,1,282.46,82.17Z" style="fill:#c7c7c7"></path><path d="M286.26,82.17a1.21,1.21,0,1,1,1.21,1.2A1.21,1.21,0,0,1,286.26,82.17Z" style="fill:#c7c7c7"></path><path d="M290.06,82.17a1.21,1.21,0,1,1,1.2,1.2A1.21,1.21,0,0,1,290.06,82.17Z" style="fill:#c7c7c7"></path><path d="M293.85,82.17a1.21,1.21,0,1,1,1.21,1.2A1.21,1.21,0,0,1,293.85,82.17Z" style="fill:#c7c7c7"></path><path d="M435.07,84.81h-9.83V80.25h9.83Zm-9.32-.52h8.8V80.76h-8.8Z" style="fill:#c7c7c7"></path><rect x="426.06" y="81.03" width="6.33" height="3" style="fill:#c7c7c7"></rect><rect x="435.07" y="81.31" width="0.87" height="2.43" style="fill:#c7c7c7"></rect><polygon points="289.98 416.7 289.09 416.7 289.09 420.78 287.43 420.78 287.43 418.7 284.49 418.7 284.49 420.78 282.82 420.78 282.82 416.7 281.94 416.7 285.96 412.54 289.98 416.7" style="fill:#ebebeb"></polygon><rect x="424.27" y="412.54" width="9.69" height="1.38" style="fill:#ebebeb"></rect><rect x="424.27" y="415.97" width="9.69" height="1.39" style="fill:#ebebeb"></rect><rect x="424.27" y="419.4" width="9.69" height="1.39" style="fill:#ebebeb"></rect><polygon points="360.8 416.8 358.04 419.75 355.28 416.8 355.77 416.35 358.04 418.77 360.31 416.35 360.8 416.8" style="fill:#ebebeb"></polygon><path d="M358,422.78a5,5,0,1,1,5-5A5,5,0,0,1,358,422.78Zm0-9.35a4.35,4.35,0,1,0,4.34,4.35A4.35,4.35,0,0,0,358,413.43Z" style="fill:#ebebeb"></path><rect x="278.92" y="139.54" width="157.68" height="189.12" style="fill:#ebebeb"></rect><rect x="288.38" y="230.37" width="25.6" height="72.79" style="fill:#37474f"></rect><rect x="313.99" y="230.37" width="62.55" height="72.79" transform="translate(690.53 533.53) rotate(180)" style="fill:#263238"></rect><rect x="288.38" y="242.45" width="25.6" height="0.86" style="fill:#263238"></rect><rect x="288.38" y="253.67" width="25.6" height="0.86" style="fill:#263238"></rect><path d="M303.78,269.93a2.59,2.59,0,1,1-2.59-2.59A2.59,2.59,0,0,1,303.78,269.93Z" style="fill:#263238"></path><path d="M302.77,269.93a1.59,1.59,0,1,1-1.58-1.59A1.58,1.58,0,0,1,302.77,269.93Z" style="fill:#C53F3F"></path><rect x="346.64" y="236.7" width="24.45" height="37.54" style="opacity:0.1"></rect><rect x="358.87" y="238.86" width="10.36" height="13.67" style="fill:#455a64"></rect><polygon points="298.35 259.21 294.98 292.83 294.94 292.9 288.84 303.15 288.38 303.15 288.38 302.46 294.25 292.59 297.6 259.14 298.35 259.21" style="fill:#C53F3F"></polygon><polygon points="313.99 302.44 313.99 303.15 313.55 303.15 307.44 292.9 307.4 292.83 304.03 259.21 304.78 259.14 308.13 292.59 313.99 302.44" style="fill:#C53F3F"></polygon><rect x="288.38" y="258.71" width="25.6" height="0.86" style="fill:#263238"></rect><polygon points="392.38 303.16 348.04 303.16 348.04 300.1 391.89 300.1 392.38 303.16" style="fill:#263238"></polygon><rect x="348.04" y="300.1" width="35.61" height="3.06" style="fill:#37474f"></rect><polygon points="391.89 300.1 363.96 300.1 365.5 285.99 390.35 285.99 391.89 300.1" style="fill:#263238"></polygon><polygon points="388.01 300.1 360.09 300.1 361.63 285.99 386.47 285.99 388.01 300.1" style="fill:#37474f"></polygon><polygon points="387.09 291.66 361.13 290.54 361.63 285.99 386.47 285.99 387.09 291.66" style="fill:#263238"></polygon><rect x="322.8" y="222.04" width="100.84" height="63.95" style="fill:#37474f"></rect><rect x="423.64" y="222.04" width="3.49" height="63.95" style="fill:#263238"></rect><rect x="327.14" y="226.2" width="92.17" height="55.29" style="fill:#263238"></rect><g style="opacity:0.5"><polygon points="379.35 226.2 327.13 247.49 327.13 240.27 361.64 226.2 379.35 226.2" style="fill:#37474f"></polygon><polygon points="419.3 252.98 419.3 260.2 367.09 281.48 349.37 281.48 419.3 252.98" style="fill:#37474f"></polygon><polygon points="412.89 226.2 327.13 261.16 327.13 259.86 409.7 226.2 412.89 226.2" style="fill:#37474f"></polygon><polygon points="419.3 274.5 419.3 275.8 405.35 281.48 402.17 281.48 419.3 274.5" style="fill:#37474f"></polygon><polygon points="356.29 226.2 327.13 238.09 327.13 236.79 353.1 226.2 356.29 226.2" style="fill:#37474f"></polygon><polygon points="419.3 228.92 419.3 232.27 327.13 269.85 327.13 266.49 419.3 228.92" style="fill:#37474f"></polygon><polygon points="419.3 267.42 419.3 270.77 393.02 281.48 384.8 281.48 419.3 267.42" style="fill:#37474f"></polygon></g><polygon points="391.24 303.16 326.7 303.16 326.7 298.7 390.53 298.7 391.24 303.16" style="fill:#263238"></polygon><rect x="326.7" y="298.7" width="51.83" height="4.46" style="fill:#37474f"></rect><path d="M386.11,303.16h31.2s-4.38-4.38-8.65-6-10.68-2-14.26-1S386.11,303.16,386.11,303.16Z" style="fill:#37474f"></path><path d="M296.16,152a.55.55,0,0,1,.54-.55h3.52a3.93,3.93,0,0,1,2.42,7,4.5,4.5,0,0,1-1.43,8.78h-4.53a.53.53,0,0,1-.52-.54Zm4.06,6.21a2.83,2.83,0,0,0,0-5.65h-3v5.65Zm1,8a3.41,3.41,0,1,0,0-6.82h-3.95v6.82Z" style="fill:#263238"></path><path d="M309.57,152a.55.55,0,0,1,.54-.55h8.13a.56.56,0,0,1,0,1.11h-7.56v6.26h6.61a.55.55,0,0,1,.54.56.54.54,0,0,1-.54.54h-6.61v6.24h7.56a.55.55,0,0,1,0,1.1h-8.17a.54.54,0,0,1-.5-.54Z" style="fill:#263238"></path><path d="M322.24,164.29a.49.49,0,0,1,.7-.06,8.66,8.66,0,0,0,5.19,2,6,6,0,0,0,3.48-1,2.92,2.92,0,0,0,1.35-2.35,2.52,2.52,0,0,0-1.28-2.17,10.5,10.5,0,0,0-3.66-1.28h0a9.84,9.84,0,0,1-3.72-1.34,3.28,3.28,0,0,1-1.63-2.75,3.69,3.69,0,0,1,1.65-3,6.5,6.5,0,0,1,3.82-1.15,8.75,8.75,0,0,1,4.87,1.83.5.5,0,0,1,.14.7.48.48,0,0,1-.68.13,7.87,7.87,0,0,0-4.33-1.67,5.67,5.67,0,0,0-3.23.95,2.77,2.77,0,0,0-1.25,2.17,2.31,2.31,0,0,0,1.18,1.92,9.38,9.38,0,0,0,3.39,1.2h0a10.76,10.76,0,0,1,4,1.44,3.56,3.56,0,0,1,1.74,3A4,4,0,0,1,332.2,166a7,7,0,0,1-4.07,1.25,9.88,9.88,0,0,1-5.82-2.29A.51.51,0,0,1,322.24,164.29Z" style="fill:#263238"></path><path d="M341.77,152.55H337a.56.56,0,0,1,0-1.11h10.61a.56.56,0,0,1,0,1.11h-4.77v14.16a.54.54,0,0,1-.54.54.55.55,0,0,1-.54-.54Z" style="fill:#263238"></path><path d="M364.37,161.11H361.6V166a1.26,1.26,0,0,1-1.27,1.24,1.25,1.25,0,0,1-1.24-1.24V152.69a1.24,1.24,0,0,1,1.24-1.25h4a4.84,4.84,0,1,1,0,9.67Zm-2.77-2.51h2.77a2.33,2.33,0,1,0,0-4.65H361.6Z" style="fill:#263238"></path><path d="M382.71,165.38a1.25,1.25,0,0,1-.79,1.58,2.09,2.09,0,0,1-.5.07h0a1.67,1.67,0,0,1-.88-.25,2.29,2.29,0,0,1-.72-.79,6,6,0,0,1-.48-2.71,1.86,1.86,0,0,0-.27-1,2,2,0,0,0-.68-.66,4.58,4.58,0,0,0-1.26-.54h-2.67V166a1.25,1.25,0,0,1-1.26,1.24,1.23,1.23,0,0,1-1.24-1.24V152.69a1.23,1.23,0,0,1,1.24-1.25h4a4.84,4.84,0,0,1,4.84,4.86,4.76,4.76,0,0,1-1.77,3.7,3.34,3.34,0,0,1,.79.84,4.21,4.21,0,0,1,.75,2.44,5.56,5.56,0,0,0,.09,1.33A1.21,1.21,0,0,1,382.71,165.38Zm-3.16-9.08a2.33,2.33,0,0,0-2.33-2.35h-2.78v4.65h2.78A2.32,2.32,0,0,0,379.55,156.3Z" style="fill:#263238"></path><path d="M386.53,152.69a1.23,1.23,0,0,1,1.24-1.25,1.26,1.26,0,0,1,1.26,1.25V166a1.25,1.25,0,0,1-1.26,1.24,1.22,1.22,0,0,1-1.24-1.24Z" style="fill:#263238"></path><path d="M392.56,159.12a8.29,8.29,0,0,1,8.28-8.13,8.49,8.49,0,0,1,5.22,1.76,1.35,1.35,0,0,1,.23,1.81,1.32,1.32,0,0,1-1.81.25,5.65,5.65,0,0,0-3.64-1.24,6,6,0,0,0-4.06,1.62,5.57,5.57,0,0,0-1.65,3.93,5.46,5.46,0,0,0,1.65,3.93,5.93,5.93,0,0,0,4.06,1.63,5.71,5.71,0,0,0,3.64-1.24,1.36,1.36,0,0,1,1.81.25,1.33,1.33,0,0,1-.23,1.8,8.42,8.42,0,0,1-5.22,1.76A8.25,8.25,0,0,1,392.56,159.12Z" style="fill:#263238"></path><path d="M410.67,166V152.69a1.23,1.23,0,0,1,1.24-1.25h7.38a1.26,1.26,0,0,1,0,2.51h-6.12v4.13h5.26a1.28,1.28,0,0,1,1.25,1.25,1.26,1.26,0,0,1-1.25,1.26h-5.26v4.16h6.12a1.25,1.25,0,0,1,0,2.5H412c-.05,0-.05,0-.05,0l0,0A1.23,1.23,0,0,1,410.67,166Z" style="fill:#263238"></path><path d="M306.09,172.38a1.8,1.8,0,0,1,1.81,1.81v.93a15.33,15.33,0,0,1,6.54,2.32,2.25,2.25,0,0,1,1.27,2,2.33,2.33,0,0,1-2.36,2.33,2.46,2.46,0,0,1-1.27-.38,15.29,15.29,0,0,0-4.35-1.86v8.1c6.42,1.6,9.16,4.18,9.16,8.69s-3.63,7.72-9,8.23v2.53a1.8,1.8,0,0,1-1.81,1.81,1.84,1.84,0,0,1-1.86-1.81v-2.62a18.16,18.16,0,0,1-8.65-3.29,2.33,2.33,0,0,1-1.14-2,2.29,2.29,0,0,1,2.33-2.32,2.34,2.34,0,0,1,1.39.46,14.83,14.83,0,0,0,6.24,2.83v-8.31c-6.16-1.61-9-3.93-9-8.69,0-4.52,3.59-7.64,8.86-8.06v-.89A1.84,1.84,0,0,1,306.09,172.38Zm-1.69,14.38V179.3c-2.7.25-4,1.68-4,3.54S301.15,185.71,304.4,186.76Zm3.33,5.87v7.68c2.7-.3,4.18-1.65,4.18-3.67C311.91,194.78,311,193.64,307.73,192.63Z" style="fill:#263238"></path><path d="M330.06,177.36v24.89a2.35,2.35,0,0,1-2.37,2.32,2.29,2.29,0,0,1-2.32-2.32V181.49l-1.69,1a2.11,2.11,0,0,1-1.18.34,2.37,2.37,0,0,1-1.22-4.35l5.19-3.08s.13,0,.17-.08.13-.09.21-.13.17,0,.25,0a.27.27,0,0,1,.17,0,.75.75,0,0,1,.3,0H328a.27.27,0,0,0,.17,0,.44.44,0,0,1,.25.08.27.27,0,0,1,.17,0c.13.09.17.13.25.13a1.47,1.47,0,0,0,.17.13s.13.08.17.12a.67.67,0,0,1,.17.17.63.63,0,0,1,.13.17s.12.13.17.17l0,.08c0,.05,0,.09,0,.13s.08.13.08.21.05.17.09.21a1.58,1.58,0,0,0,0,.21.35.35,0,0,0,.09.3Z" style="fill:#263238"></path><path d="M335.92,208.37a3.66,3.66,0,0,0,2.87-3.8,3.08,3.08,0,0,1-2.41-2.87v-.34a2.73,2.73,0,0,1,2.87-2.82c1.9,0,3,1.43,3,3.71v.46c0,2.87-.76,4.81-2.07,6.16a6.39,6.39,0,0,1-4,1.82,1.17,1.17,0,0,1-.34-2.32Z" style="fill:#263238"></path><path d="M345.16,185.25a10.24,10.24,0,0,1,20.42-1.06s0,0,0,.08c.05.81.09,1.61.09,2.41a24.61,24.61,0,0,1-1.48,8.65,14.71,14.71,0,0,1-5.44,7.21,12.16,12.16,0,0,1-6.33,2,2.36,2.36,0,0,1-2.45-2.24,2.45,2.45,0,0,1,2.28-2.45,7.68,7.68,0,0,0,4-1.18,8.77,8.77,0,0,0,2.66-2.95,9.36,9.36,0,0,0,.54-1.1,9.89,9.89,0,0,1-4,.85A10.23,10.23,0,0,1,345.16,185.25Zm4.68,0a5.55,5.55,0,1,0,11.1,0,5.55,5.55,0,0,0-11.1,0Z" style="fill:#263238"></path><path d="M372.25,185.25a10.24,10.24,0,0,1,20.42-1.06s0,0,0,.08c0,.81.09,1.61.09,2.41a24.84,24.84,0,0,1-1.48,8.65,14.83,14.83,0,0,1-5.44,7.21,12.19,12.19,0,0,1-6.33,2,2.35,2.35,0,0,1-2.45-2.24,2.45,2.45,0,0,1,2.28-2.45,7.68,7.68,0,0,0,4-1.18,8.65,8.65,0,0,0,2.65-2.95,9.4,9.4,0,0,0,.55-1.1,9.89,9.89,0,0,1-4.05.85A10.23,10.23,0,0,1,372.25,185.25Zm4.68,0a5.55,5.55,0,1,0,11.1,0,5.55,5.55,0,0,0-11.1,0Z" style="fill:#263238"></path><path d="M399.34,185.25a10.24,10.24,0,0,1,20.42-1.06s0,0,0,.08c0,.81.08,1.61.08,2.41a24.82,24.82,0,0,1-1.47,8.65,14.79,14.79,0,0,1-5.45,7.21,12.13,12.13,0,0,1-6.32,2,2.35,2.35,0,0,1-2.45-2.24,2.45,2.45,0,0,1,2.28-2.45,7.62,7.62,0,0,0,4-1.18,8.67,8.67,0,0,0,2.66-2.95,9.4,9.4,0,0,0,.55-1.1,9.92,9.92,0,0,1-4.05.85A10.23,10.23,0,0,1,399.34,185.25Zm4.68,0a5.55,5.55,0,1,0,11.1,0,5.55,5.55,0,0,0-11.1,0Z" style="fill:#263238"></path><polygon points="409.46 292.19 412.94 295.28 415.7 291.54 418.45 295.29 421.94 292.2 423.85 296.44 427.9 294.15 428.89 298.69 433.33 297.29 433.36 301.94 437.98 301.49 437.05 306.04 441.67 306.56 439.8 310.82 444.21 312.3 441.5 316.07 445.51 318.43 442.08 321.56 445.51 324.7 441.5 327.05 444.2 330.84 439.79 332.3 441.64 336.56 437.02 337.08 437.95 341.63 433.32 341.18 433.29 345.83 428.86 344.42 427.85 348.96 423.81 346.66 421.89 350.89 418.41 347.8 415.65 351.54 412.89 347.8 409.41 350.88 407.49 346.65 403.45 348.94 402.45 344.4 398.02 345.8 397.99 341.15 393.36 341.6 394.3 337.05 389.68 336.52 391.54 332.26 387.13 330.79 389.84 327.01 385.84 324.65 389.27 321.52 385.84 318.38 389.85 316.03 387.15 312.25 391.56 310.78 389.7 306.52 394.32 306 393.4 301.45 398.02 301.91 398.06 297.26 402.49 298.67 403.49 294.13 407.54 296.43 409.46 292.19" style="fill:#C53F3F"></polygon><path d="M439.76,316.44c4.55,21.48-19.16,37.76-37.62,25.9-11.4-7.11-14.81-23.21-7.26-34.33,12.06-18.32,40.34-13,44.88,8.43Zm0,0c-4.63-21.27-32.69-26.48-44.57-8.22-7.3,10.85-3.92,26.84,7.16,33.8,18.26,11.88,41.8-4.25,37.41-25.58Z" style="fill:#fff"></path><path d="M396.31,331l-2.18-10.29a1,1,0,0,1,.76-1.17l2.06-.43a6.24,6.24,0,0,1,2.58,12.21l-2.06.44A1,1,0,0,1,396.31,331Zm1.73-1.39,1.08-.23a4.26,4.26,0,0,0-1.76-8.34l-1.09.23Z" style="fill:#fff"></path><path d="M408,328.55l-2.18-10.29a1,1,0,0,1,.76-1.17h.05l5.65-1.19a1,1,0,0,1,1.16.75,1,1,0,0,1-.75,1.18l-4.73,1,.68,3.19,4.06-.86a1,1,0,0,1,1.17.76,1,1,0,0,1-.76,1.18L409,324l.68,3.21,4.73-1a1,1,0,0,1,1.16.77,1,1,0,0,1-.75,1.17l-5.66,1.19s0,0,0,0l0,0A1,1,0,0,1,408,328.55Z" style="fill:#fff"></path><path d="M424.15,323.12l-4.24.9-.38,2.45a1,1,0,0,1-1.12.82,1,1,0,0,1-.84-1.14l1.68-11.09a1,1,0,0,1,.8-.8,1,1,0,0,1,1.05.41l6,9.46a1,1,0,0,1-.31,1.38,1.19,1.19,0,0,1-.32.12,1,1,0,0,1-1-.42ZM423,321.35l-2.2-3.45L420.2,322Z" style="fill:#fff"></path><path d="M429.59,324l-2.18-10.29a1,1,0,0,1,.76-1.16,1,1,0,0,1,1.18.75l2,9.32,4.73-1a1,1,0,0,1,.41,1.93l-5.65,1.2h-.05A1,1,0,0,1,429.59,324Z" style="fill:#fff"></path><rect x="325.7" y="383.02" width="64.11" height="17.61" style="fill:#C53F3F"></rect><path d="M334.43,393.39h-1.94l-.39,1a.44.44,0,0,1-.42.28.39.39,0,0,1-.15,0,.46.46,0,0,1-.26-.58l1.76-4.7a.45.45,0,0,1,.43-.28.43.43,0,0,1,.42.28l1.77,4.7a.46.46,0,0,1-.26.58.39.39,0,0,1-.16,0,.42.42,0,0,1-.4-.28Zm-.32-.88-.65-1.72-.65,1.72Z" style="fill:#fff"></path><path d="M336.75,394.27v-4.72a.43.43,0,0,1,.44-.44h.94a2.8,2.8,0,0,1,0,5.59h-.94A.44.44,0,0,1,336.75,394.27Zm.88-.45h.5a1.91,1.91,0,0,0,0-3.82h-.5Z" style="fill:#fff"></path><path d="M342.26,394.27v-4.72a.43.43,0,0,1,.44-.44h.94a2.8,2.8,0,0,1,0,5.59h-.94A.44.44,0,0,1,342.26,394.27Zm.89-.45h.49a1.91,1.91,0,1,0,0-3.82h-.49Z" style="fill:#fff"></path><path d="M353.83,390h-1.27v4.27a.43.43,0,0,1-.44.43.44.44,0,0,1-.44-.43V390h-1.26a.45.45,0,0,1-.44-.45.43.43,0,0,1,.44-.44h3.41a.44.44,0,0,1,.44.44A.45.45,0,0,1,353.83,390Z" style="fill:#fff"></path><path d="M359.57,389.8a2.94,2.94,0,0,1,0,4.05,2.62,2.62,0,0,1-1.91.85,2.69,2.69,0,0,1-2-.85,3,3,0,0,1,0-4.05,2.69,2.69,0,0,1,2-.85A2.62,2.62,0,0,1,359.57,389.8Zm-.1,2a2.05,2.05,0,0,0-.55-1.4,1.71,1.71,0,0,0-1.26-.57,1.76,1.76,0,0,0-1.3.57,2.07,2.07,0,0,0,0,2.79,1.76,1.76,0,0,0,1.3.57,1.71,1.71,0,0,0,1.26-.57A2,2,0,0,0,359.47,391.83Z" style="fill:#fff"></path><path d="M364.11,391.83A2.92,2.92,0,0,1,367,389a3,3,0,0,1,1.85.62.48.48,0,0,1,.08.64.47.47,0,0,1-.64.09,2,2,0,0,0-1.29-.44,2.1,2.1,0,0,0-1.44.58,2,2,0,0,0,0,2.78,2.13,2.13,0,0,0,1.44.57,2,2,0,0,0,1.29-.44.5.5,0,0,1,.64.09.48.48,0,0,1-.08.64,3,3,0,0,1-1.85.62A2.91,2.91,0,0,1,364.11,391.83Z" style="fill:#fff"></path><path d="M373.26,393.39h-1.95l-.39,1a.44.44,0,0,1-.41.28.41.41,0,0,1-.16,0,.46.46,0,0,1-.26-.58l1.77-4.7a.43.43,0,0,1,.42-.28.42.42,0,0,1,.42.28l1.77,4.7a.46.46,0,0,1-.26.58.36.36,0,0,1-.15,0,.42.42,0,0,1-.41-.28Zm-.33-.88-.65-1.72-.65,1.72Z" style="fill:#fff"></path><path d="M379.27,394a.44.44,0,0,1-.28.56l-.17,0h0a.57.57,0,0,1-.31-.08.87.87,0,0,1-.26-.28,2.2,2.2,0,0,1-.17-1A.81.81,0,0,0,378,393a1.06,1.06,0,0,0-.24-.23,1.75,1.75,0,0,0-.45-.19h-.94v1.74a.44.44,0,0,1-.45.43.44.44,0,0,1-.44-.43v-4.72a.43.43,0,0,1,.44-.44h1.43a1.71,1.71,0,0,1,1.09,3,1.29,1.29,0,0,1,.28.29,1.54,1.54,0,0,1,.26.87,2.3,2.3,0,0,0,0,.47A.42.42,0,0,1,379.27,394Zm-1.12-3.21a.82.82,0,0,0-.82-.83h-1v1.64h1A.82.82,0,0,0,378.15,390.83Z" style="fill:#fff"></path><path d="M383.83,390h-1.27v4.27a.43.43,0,0,1-.44.43.44.44,0,0,1-.44-.43V390h-1.26a.45.45,0,0,1-.44-.45.43.43,0,0,1,.44-.44h3.41a.44.44,0,0,1,.44.44A.45.45,0,0,1,383.83,390Z" style="fill:#fff"></path><path d="M278.92,347.12c23-.67,46.13-.67,69.12,0-23,.67-46.13.67-69.12,0Z" style="fill:#dbdbdb"></path><path d="M278.92,353.49c32-.67,67.59-.65,99.62,0-32,.65-67.61.66-99.62,0Z" style="fill:#ebebeb"></path><path d="M278.92,358.48c32-.67,67.59-.65,99.62,0-32,.64-67.61.66-99.62,0Z" style="fill:#ebebeb"></path><path d="M278.92,363.46c32-.66,67.59-.64,99.62,0-32,.65-67.61.67-99.62,0Z" style="fill:#ebebeb"></path><polygon points="282.24 335.86 283.27 337.1 284.77 337.7 283.91 339.07 283.81 340.68 282.24 340.28 280.68 340.68 280.57 339.07 279.71 337.7 281.21 337.1 282.24 335.86" style="fill:#C53F3F"></polygon><polygon points="292.05 335.86 293.08 337.1 294.58 337.7 293.72 339.07 293.62 340.68 292.05 340.28 290.49 340.68 290.38 339.07 289.52 337.7 291.02 337.1 292.05 335.86" style="fill:#C53F3F"></polygon><polygon points="301.86 335.86 302.89 337.1 304.39 337.7 303.53 339.07 303.43 340.68 301.86 340.28 300.3 340.68 300.19 339.07 299.33 337.7 300.83 337.1 301.86 335.86" style="fill:#C53F3F"></polygon><polygon points="311.67 335.86 312.7 337.1 314.2 337.7 313.34 339.07 313.24 340.68 311.67 340.28 310.11 340.68 310 339.07 309.14 337.7 310.64 337.1 311.67 335.86" style="fill:#C53F3F"></polygon><path d="M319.57,341.15l-.13-2-1.05-1.67,1.83-.73,1.26-1.51,1.26,1.51,1.83.73-1.05,1.67-.13,2-1.91-.48Zm1.91-1.25,1.22.3.14-1.33.62-1-1.23-.54-.75-.89-.89,1-1.08.43.67,1.16.08,1.16Z" style="fill:#C53F3F"></path><polygon points="321.48 340.28 321.48 335.86 320.45 337.1 318.95 337.7 319.81 339.07 319.92 340.68 321.48 340.28" style="fill:#C53F3F"></polygon></g><g id="freepik--Character--inject-2"><path d="M81.22,444.35l158,.68c38.4-30.14,42.36-74.81,15-101.88-16.58-16.38-37.63-13.08-57.67-15.68h-.06a59.09,59.09,0,0,1-20.33-6c-20.64-10.89-32.27-36.57-49.64-58.17q-3.24-4.08-6.79-7.89c-14.28-15.24-42.7-15.74-57.57,5.7C24.32,315.59,41.63,396.65,81.22,444.35Z" style="fill:#C53F3F"></path><path d="M77.72,319.74c4.14,64.81,79,89,125.72,69.59,40.65-16.89,27.34-55.42-7-61.86h-.06a59.09,59.09,0,0,1-20.33-6c-20.64-10.89-32.27-36.57-49.64-58.17C100.59,249.88,74.68,272.29,77.72,319.74Z" style="opacity:0.1"></path><path d="M220.3,480.13c-2.43-1-56.25-47.9-57.18-51-.35-1.17,6-9.41,14-19.14,1.73-2.11,3.52-4.27,5.35-6.45,11.88-14.19,24.82-29,24.82-29l36.1,31.26L217.57,434l-5.66,6.18s12.58,27.17,13.22,30.66S222.72,481.14,220.3,480.13Z" style="fill:#d3766a"></path><path d="M220.3,480.13c-2.43-1-56.25-47.9-57.18-51-.42-1.43,9.07-13.29,19.35-25.59l35.1,30.4-5.66,6.18s12.58,27.17,13.22,30.66S222.72,481.14,220.3,480.13Z" style="fill:#fff"></path><path d="M220.3,480.13c-2.43-1-56.25-47.9-57.18-51-.35-1.17,6-9.41,14-19.14l34.79,30.13s12.58,27.17,13.22,30.66S222.72,481.14,220.3,480.13Z" style="fill:#455a64"></path><path d="M221.4,477.31c-8.83-8.08-45.2-39.85-54.54-47.17-.08-.06-.12,0-.05.06,8.57,8.2,45.2,39.67,54.46,47.26C221.47,477.62,221.59,477.48,221.4,477.31Z" style="fill:#263238"></path><path d="M223.36,465.85a9.61,9.61,0,0,0-7.32-2.5,9.37,9.37,0,0,0-6.21,3.06c-.05.06,0,.14.11.1a11.1,11.1,0,0,1,13.32-.55A.07.07,0,1,0,223.36,465.85Z" style="fill:#263238"></path><path d="M214.63,444.09c-3.57-3.2-8.87-5.57-13.68-4.58-.19,0-.13.31,0,.35a66.47,66.47,0,0,1,13.33,4.72A.3.3,0,0,0,214.63,444.09Z" style="fill:#263238"></path><path d="M216.47,447.6c-3.57-3.19-8.87-5.57-13.68-4.57-.19,0-.13.3,0,.34a65.89,65.89,0,0,1,13.33,4.73A.3.3,0,0,0,216.47,447.6Z" style="fill:#263238"></path><path d="M218.31,451.12c-3.57-3.2-8.87-5.57-13.68-4.57-.19,0-.13.3,0,.34A65.89,65.89,0,0,1,218,451.62.3.3,0,0,0,218.31,451.12Z" style="fill:#263238"></path><path d="M220.15,454.63c-3.57-3.19-8.86-5.57-13.68-4.57-.19,0-.13.3,0,.34a66.1,66.1,0,0,1,13.33,4.73A.3.3,0,0,0,220.15,454.63Z" style="fill:#263238"></path><path d="M176.62,423.58c-4.06-3.52-9.54,2.78-5.47,6.31S180.69,427.1,176.62,423.58Z" style="fill:#fff"></path><path d="M226.93,437.85c-.51-3.11-4.1-3.63-6.6-3A25.17,25.17,0,0,0,209,441.18a.14.14,0,0,0,0,.21.58.58,0,0,0,.4.85c4.12.46,8.47,1.47,12.61.65C224.44,442.42,227.41,440.79,226.93,437.85Zm-11.12,3.82c-2-.18-4-.46-6.08-.56a74,74,0,0,1,6.69-3.58,28,28,0,0,1,3.45-1.29c1.82-.51,8-.44,4.93,3.81C223.11,442.39,218.23,441.88,215.81,441.67Z" style="fill:#263238"></path><path d="M198.86,434.71c2.73,3.22,6.75,5.15,10.26,7.36a.58.58,0,0,0,.84-.42c.08,0,.15,0,.14-.14a25.14,25.14,0,0,0-4.86-12.06c-1.59-2-4.72-3.85-7.06-1.74S197.27,432.82,198.86,434.71Zm-.39-4c.26-5.23,5.12-1.42,6.23.11a27.2,27.2,0,0,1,1.89,3.16,73.8,73.8,0,0,1,3,7c-1.65-1.19-3.4-2.23-5.1-3.36C202.46,436.28,198.33,433.63,198.47,430.75Z" style="fill:#263238"></path><path d="M283.54,350.39c-3.38,19.3-53.59,73.29-59.39,79.48l-1.32,1.41L184.56,399.2l.48-.57,36.78-44.14-103.89-5,40.75-29s3.13,2,9.82,1.3c23.08-2.38,75.1-7.62,87.27-6.61C271.47,316.47,286.65,332.68,283.54,350.39Z" style="fill:#263238"></path><path d="M235.05,338.07a46.11,46.11,0,0,0-3.79,4.45c-1.3,1.56-2.62,3.11-3.92,4.67l0,.05c.24-.46.47-.93.72-1.39.85-1.57,1.54-3.21,2.52-4.71a.08.08,0,0,0-.14-.09c-1,1.48-2.16,2.89-3,4.46q-.62,1.11-1.17,2.25c-.2.42-.41.84-.59,1.26-.09.2-.19.41-.26.62-.58.72-1.16,1.45-1.72,2.2-1.24,1.65-2.35,3.4-3.61,5-.07.09.07.18.14.1,1.27-1.54,2.68-3,4-4.48s2.56-3.14,3.79-4.75,2.39-3.16,3.59-4.73a46.25,46.25,0,0,0,3.64-4.86C235.18,338.09,235.1,338,235.05,338.07Z" style="fill:#37474f"></path><path d="M228.52,422.34c-2.18-2-4.52-3.88-6.81-5.76s-4.62-3.76-6.94-5.62c-4.65-3.72-9.28-7.47-14-11.13-2.58-2-5.19-4-7.87-5.86-.12-.09-.26.11-.15.2,4.4,4,9.1,7.67,13.74,11.38s9.33,7.43,14,11.08c2.57,2,5.14,4.06,7.83,5.89C228.49,422.6,228.61,422.43,228.52,422.34Z" style="fill:#37474f"></path><path d="M156.27,260.45c21.66,20.66,41.65,43.18,42.94,54.42,1.8,15.57-7.86,19.6-12.13,19.52-11.64-.21-31.45-47.95-38.29-66.16C142.14,250.55,151.51,255.91,156.27,260.45Z" style="fill:#455a64"></path><path d="M170.16,334.91s-73,11.07-73.35,10.62,10.38-78.68,35.42-91.2c4-2,13.44-2.94,17.34,1.29C160.69,267.68,171.15,333.87,170.16,334.91Z" style="fill:#455a64"></path><path d="M169.6,328.37l-71.86,10.1c.34-2.15.78-4.72,1.31-7.6l69.45-9.76C169,323.86,169.32,326.32,169.6,328.37Z" style="fill:#37474f"></path><path d="M167.85,317.26l-68,9.56q.38-1.92.81-4l66.57-9.35C167.42,314.79,167.64,316.05,167.85,317.26Z" style="fill:#37474f"></path><path d="M143.86,268.51c-4.15.17-9.79-7.19-11.54-12.62-.12-.37,1.08-3.82,2.34-8.08.75-2.59,1.52-5.49,2-8.19L152.83,247a44.23,44.23,0,0,0-3.62,10,6.36,6.36,0,0,0-.09,1.13c0,.05,0,.11,0,.19C149.05,260.5,147.87,268.33,143.86,268.51Z" style="fill:#d3766a"></path><path d="M152.84,247a43.5,43.5,0,0,0-3.62,10,5.58,5.58,0,0,0-.1,1.13,1.15,1.15,0,0,1,0,.18,8.23,8.23,0,0,1-1.76-.24c-9.8-2.11-10.24-14.83-10.18-18.26Z" style="fill:#263238"></path><path d="M131.83,222.13c-1.6,6.18,2.4,23.67,6.92,27.41,6.54,5.42,16.87,5.51,21.38-2.26,4.37-7.54-1.25-30.24-6.25-33.6C146.5,208.73,134.18,213,131.83,222.13Z" style="fill:#d3766a"></path><path d="M150.05,233.94c0-.05-.09.07-.08.12.23,1.17.3,2.56-.71,3.13,0,0,0,.08,0,.07C150.56,236.86,150.45,235,150.05,233.94Z" style="fill:#263238"></path><path d="M148.78,232.87c-1.92.17-1.44,4,.34,3.86S150.4,232.73,148.78,232.87Z" style="fill:#263238"></path><path d="M156.65,232.88s.11,0,.11.09c.11,1.19.44,2.54,1.56,2.81a0,0,0,0,1,0,.06C157,235.82,156.57,234,156.65,232.88Z" style="fill:#263238"></path><path d="M157.56,231.5c1.9-.38,2.53,3.44.77,3.79S156,231.82,157.56,231.5Z" style="fill:#263238"></path><path d="M147.05,232.16a12.54,12.54,0,0,0,1.42-.71,2.5,2.5,0,0,0,1.32-1,.81.81,0,0,0-.26-1,2,2,0,0,0-2.05,0,3,3,0,0,0-1.55,1.49A.87.87,0,0,0,147.05,232.16Z" style="fill:#263238"></path><path d="M158.81,228.52a14.25,14.25,0,0,1-1.58-.21,2.59,2.59,0,0,1-1.57-.51.83.83,0,0,1-.07-1,2,2,0,0,1,2-.63,3,3,0,0,1,1.95.91A.87.87,0,0,1,158.81,228.52Z" style="fill:#263238"></path><path d="M149.81,244.35c.27.3.53.71,1,.78a3.28,3.28,0,0,0,1.31-.21,0,0,0,0,1,0,.06,1.59,1.59,0,0,1-1.56.54,1.27,1.27,0,0,1-.87-1.12C149.68,244.33,149.77,244.31,149.81,244.35Z" style="fill:#263238"></path><path d="M150.89,240.74a4.1,4.1,0,0,0,2.93,1.47,5.15,5.15,0,0,0,1.46-.12,4.58,4.58,0,0,0,.53-.14.29.29,0,0,0,.21-.29h0s-.4-2.54-.4-2.54c.36.13,2.16.68,2.08.21a62.13,62.13,0,0,0-3.1-12.08.12.12,0,0,0-.22.06c.55,3.81,1.77,7.5,2.39,11.32a7.52,7.52,0,0,0-2-.35c-.06,0,.57,3.1.56,3.13a5.66,5.66,0,0,1-4.36-.78C150.89,240.56,150.8,240.65,150.89,240.74Z" style="fill:#263238"></path><path d="M155.06,241.93a5.13,5.13,0,0,1-1.87,1.78,2.31,2.31,0,0,1-1.38.22c-1-.16-1.15-1.07-1-1.88a5.52,5.52,0,0,1,.32-1.25A6.65,6.65,0,0,0,155.06,241.93Z" style="fill:#263238"></path><path d="M153.19,243.71a2.31,2.31,0,0,1-1.38.22c-1-.16-1.15-1.07-1-1.88A2.37,2.37,0,0,1,153.19,243.71Z" style="fill:#ff9cbd"></path><path d="M131.41,237.93c4.78.08,7-5.74,5.61-10.25,0,0,12.76,1,12.83-9.2a11.6,11.6,0,0,0,9.05,4.28l1,3.52c1.28-.45,2.47-4.21-.87-6.94,0,0-.49-5.06-4.39-7.91a7,7,0,0,0-7.51-.65,10.52,10.52,0,0,0-7.75-1.47,9,9,0,0,0-6.33,5.21s-6.21,1.53-7,6a9.24,9.24,0,0,0,1.64,7.38s-1.48,1.84-.48,5.6C127.85,236,130,237.91,131.41,237.93Z" style="fill:#263238"></path><path d="M149.52,217.59a12.12,12.12,0,0,1,.16,2.48,9.89,9.89,0,0,1-.33,2.43,6.45,6.45,0,0,1-2.74,3.81,10.33,10.33,0,0,1-4.61,1.42c-.83,0-1.65.1-2.48.07s-1.66-.1-2.5-.12c.82.15,1.65.27,2.48.41s1.68.06,2.53.09a10.28,10.28,0,0,0,4.9-1.38,6.75,6.75,0,0,0,2.86-4.19A10.27,10.27,0,0,0,149.52,217.59Z" style="fill:#263238"></path><path d="M156.37,223.12a13.24,13.24,0,0,1-4-1.87,7.71,7.71,0,0,1-1.56-1.46,9.65,9.65,0,0,1-1.17-1.87,5.36,5.36,0,0,0,.8,2.13,5.92,5.92,0,0,0,1.59,1.68,7.05,7.05,0,0,0,2.05,1A6.93,6.93,0,0,0,156.37,223.12Z" style="fill:#263238"></path><path d="M137,237.36s-4.35-5.44-6.84-3.85,1,9.65,4.13,10.59a3.1,3.1,0,0,0,4-1.93Z" style="fill:#d3766a"></path><path d="M131.2,235.8s0,.06,0,.08c2.19.72,3.43,2.63,4.35,4.62a1.71,1.71,0,0,0-2.58-.3c-.05,0,0,.12.06.11a1.92,1.92,0,0,1,2.14.53,9.06,9.06,0,0,1,1.1,1.62c.12.19.45.06.37-.15l0-.05C136.49,239.54,134.13,235.88,131.2,235.8Z" style="fill:#263238"></path><path d="M149.83,261.9a0,0,0,0,0-.05,0c0,3.39-.24,11.23-5.5,10.42-2.12-.33-4-1.78-5.52-3.19a29.85,29.85,0,0,1-4.2-4.84,44.86,44.86,0,0,1-3.81-6.11c0-.09-.18,0-.13.09,1.12,2.14,2,4.35,3.36,6.38a25.76,25.76,0,0,0,4.53,5.35c1.65,1.45,3.63,2.9,5.88,3.14a4.29,4.29,0,0,0,4.55-2.94A18.83,18.83,0,0,0,149.83,261.9Z" style="fill:#263238"></path><path d="M122.22,261.74c-18.69,18.91-36.75,49.11-34.92,64.87,1.81,15.57,10.31,12.83,11.72,12.17,14.86-7,27.67-52.58,32.19-71.06S126.84,257.07,122.22,261.74Z" style="fill:#455a64"></path><path d="M109.23,328.08c8.26-16.62,14.42-34.15,19.8-51.89-3.36,18.26-9.71,36.24-19.8,51.89Z" style="fill:#263238"></path><path d="M129.47,279.39a7.06,7.06,0,0,1-2.66,5.41,13.08,13.08,0,0,1,2.66-5.41Z" style="fill:#263238"></path><path d="M186,333.82c-7.22-1.27-11-14.87-18.4-36.55-1.31-3.81,18-24.84,20.48-21.3,3.08,4.46,10.88,28.92,11.54,35.53C201,324.53,194.45,335.29,186,333.82Z" style="fill:#d3766a"></path><path d="M194,290.56,170.48,310s7.65,25.16,17.49,24.11,13-11.51,11.67-22.57A85.72,85.72,0,0,0,194,290.56Z" style="fill:#455a64"></path><path d="M177.47,325.89c-3-5-5.93-10.19-7.12-15.91v-.08c.46-.33.92-.67,1.4-1-.38.4-.78.77-1.18,1.15l0-.12a30.27,30.27,0,0,0,1.57,4c1.73,3.86,3.72,8,5.3,11.94Z" style="fill:#263238"></path><path d="M175.1,314.88c3.35-3.24,12.68-11.76,19.48-16.49,0,0,.17.12.14.15-5.05,4.8-15.81,13.63-19.43,16.56C175.23,315.16,175,314.94,175.1,314.88Z" style="fill:#263238"></path><path d="M193.47,289.05c-1.14-7.35-2.66-15.86-5.33-18s-13-9.6-15.88-10.55-15.92-5.65-18.27-4.24c-1.88,1.13.46,6.09,6.65,8.38a92.7,92.7,0,0,1,9.81,4.57c1.59.66,5.46,5.69,4.47,8-.59,1.34-4.44,3-6.86,1.92s-3.1-5.8-5.89-8-7.64-1.85-7.9-.54,1.36,1.9,3.91,6.32c1.65,2.83,1.87,9.7,5.58,14.57a84.51,84.51,0,0,1,5.14,9Z" style="fill:#d3766a"></path><path d="M159.56,269.15a4.77,4.77,0,0,1-2.42-1,2,2,0,0,1-.56-1,2.15,2.15,0,0,1,0-.62.91.91,0,0,1,.23-.59s0-.09-.06,0a3.06,3.06,0,0,1-.21.29,1.83,1.83,0,0,0-.14.28,1.57,1.57,0,0,0-.09.6,2,2,0,0,0,.5,1.22,3.28,3.28,0,0,0,2.78,1S159.6,269.16,159.56,269.15Z" style="fill:#263238"></path><path d="M188.14,271.09c-2.4-3.64-8.5-10.17-14.47-12.35-4-1.47-17.73,5.48-17.29,8.11s2.81,2.6,6.29,2.13c1.27-.17,8-2.7,9.13-1.31,1.68,2,3.89,8.9,3.89,8.9Z" style="fill:#d3766a"></path><path d="M156.71,265.82c1.66-2.86,5.38-4.43,9.09-5.68a0,0,0,0,1,0,.09c-.94.32-7,3.22-9.08,5.63C156.73,265.89,156.69,265.84,156.71,265.82Z" style="fill:#263238"></path><path d="M188.14,271.09c-2.4-3.64-8.5-10.17-14.47-12.35-4-1.47-14.82,7.31-14.37,9.94s3.83,2.79,7.56,1.43c1.2-.45,5.21-3.37,6.38-2,1.68,2,5.78,7,5.78,7Z" style="fill:#d3766a"></path><path d="M176.65,272c-.38-.57-.51-.77-.91-1.34s-.8-1.12-1.23-1.66a5.28,5.28,0,0,0-1.26-1.28,2.67,2.67,0,0,0-1.66-.3,9.33,9.33,0,0,0-3.55,1.63c-1.22.73-3.75,1.92-5.71,1.74a4,4,0,0,1-1.55-.39,2.39,2.39,0,0,1-.93-.72c-.87-1.43.16-3.08,1.22-4.26a25.07,25.07,0,0,1,7.28-5.15c.64-.33,1.29-.64,1.94-1a5.89,5.89,0,0,1,2.36-.71c1.35,0,3.6,1.31,4.3,1.71.05,0,.09,0,0-.08-.85-.51-2.94-2.17-5.13-2a6.77,6.77,0,0,0-2.27.8c-.75.34-1.5.71-2.24,1.09a31.77,31.77,0,0,0-4.13,2.54,12.94,12.94,0,0,0-3.36,3.28,3.82,3.82,0,0,0-.18,3.91,3.36,3.36,0,0,0,2.49,1.28,6.61,6.61,0,0,0,1.72-.05,26.54,26.54,0,0,0,3.74-1.16c1.18-.49,2.24-1.31,3.45-1.7a2.34,2.34,0,0,1,1.78.09,6.27,6.27,0,0,1,1.34,1.18,18.41,18.41,0,0,1,2.25,2.59C176.63,272.35,176.81,272.26,176.65,272Z" style="fill:#263238"></path><path d="M189.93,274.27c-.89-1.74-2.46-8.92-3.88-11.11s-7.91-9.73-10.87-9.35c-3.72.48.27,7.13,2.27,9.87s1.75,7.44,1.75,7.44Z" style="fill:#d3766a"></path><path d="M174.65,259.13c.71.87,1.34,1.83,2,2.76a21.39,21.39,0,0,1,1.71,2.72,9.71,9.71,0,0,1,.78,3.06c.06.51.08,1,.09,1.55s0,1.14,0,1.71a.05.05,0,0,1-.1,0,24.74,24.74,0,0,0-.45-3.09,12.87,12.87,0,0,0-1-3.06c-.9-1.94-2.2-3.66-3.12-5.59C174.49,259.13,174.6,259.07,174.65,259.13Z" style="fill:#263238"></path><path d="M179.16,271.91c.31,2.69-.81,5.34-2.06,7.67s-3.19,4.17-4.14,6.63a20.58,20.58,0,0,0-1.32,5,14.48,14.48,0,0,1,3.16-10c2-2.77,3.85-5.86,4.36-9.3Z" style="fill:#263238"></path><path d="M153.79,269.12l-9.28,30.76c-.37.9.05,1.66,1,1.7l16.06.75a2.61,2.61,0,0,0,2.3-1.55L173.1,270c.38-.9,0-1.66-.94-1.7l-16.06-.75A2.61,2.61,0,0,0,153.79,269.12Z" style="fill:#c7c7c7"></path><path d="M155.7,269.2,146.42,300a1.12,1.12,0,0,0,.94,1.71l16.06.74a2.61,2.61,0,0,0,2.31-1.55L175,270.09c.38-.9,0-1.66-.95-1.7L158,267.64A2.62,2.62,0,0,0,155.7,269.2Z" style="fill:#dbdbdb"></path><path d="M160,270.82a1.37,1.37,0,1,1-1.27-1.45A1.37,1.37,0,0,1,160,270.82Z" style="fill:#263238"></path><path d="M94.25,338.39c7,.83,15.64-4.77,38-21.73,3.09-2.35-7.6-28.6-11-26.27-4.32,2.95-20.43,15.3-21.5,16.35C90.71,315.62,89.48,337.83,94.25,338.39Z" style="fill:#d3766a"></path><path d="M113.25,298.55s6.27-9.17,11.06-13a39.3,39.3,0,0,1,17.28-7.37c6.76-1.13,23.9.82,24.2,5.85.27,4.56-17.14,1.68-17.14,1.68s18.24,0,17.56,5.55-20.71,1.06-20.71,1.06,18.74.42,17.13,6c-1.21,4.24-19.58,1.19-19.58,1.19s16.1.48,15,4.89c-1.17,4.88-18.3,3.13-18.3,3.13-4.59,10.76-11.18,14-16.14,15.76C122.45,323.78,113.25,298.55,113.25,298.55Z" style="fill:#d3766a"></path><path d="M142.34,285.33c2.14-.07,4.31-.17,6.45-.05s4.28.3,6.41.61a37.18,37.18,0,0,1,8.14,2c-4.79-1.39-12.46-1.91-14.6-2s-4.27-.33-6.41-.44C142.28,285.41,142.29,285.34,142.34,285.33Z" style="fill:#263238"></path><path d="M141.79,293.06c2.74,0,5.46-.06,8.2.08s5.3.51,8,.84c.21,0,.13.13-.08.11-2.72-.21-5.26-.21-8-.39s-5.44-.48-8.16-.57C141.74,293.13,141.74,293.06,141.79,293.06Z" style="fill:#263238"></path><path d="M140.12,299.61a62,62,0,0,1,12.53,1.08c.21,0,.09.16-.12.14-4.16-.44-7.42-.82-12.4-1.07C140.05,299.75,140,299.61,140.12,299.61Z" style="fill:#263238"></path><path d="M151,278.18a28.33,28.33,0,0,0-9.38,0" style="fill:#263238"></path><path d="M113.17,296.15,112,337s-15.3,3.24-18.52,1.09S90,316.85,98.51,307.71A67.58,67.58,0,0,1,113.17,296.15Z" style="fill:#455a64"></path><path d="M105.47,334.11c0-5.62.24-20.87,1.52-30.76,0-.06.21-.06.21,0,0,8.41-1.06,25.16-1.44,30.77C105.75,334.22,105.47,334.21,105.47,334.11Z" style="fill:#263238"></path><path d="M113.17,296.15C107.69,299.89,102.31,304,98,309s-5.7,11.94-6.56,18.44c.18-6.62,1.47-13.78,6-18.9a62.83,62.83,0,0,1,15.75-12.38Z" style="fill:#263238"></path><path d="M112.14,331.28a54.23,54.23,0,0,1,.19,6,68.92,68.92,0,0,1-8.2,1.56,23.85,23.85,0,0,1-8-.07,18.44,18.44,0,0,0,4,0,94.49,94.49,0,0,0,11.79-2.09l-.27.34a51.46,51.46,0,0,1,.53-5.68Z" style="fill:#263238"></path><path d="M92.79,318.57c-.77,1.77-1.49,3.57-2.12,5.38a7.67,7.67,0,0,1,2.12-5.38Z" style="fill:#263238"></path><path d="M367.4,423.35c-1,2.42-48.08,56.09-51.17,57-1.17.35-9.39-6-19.1-14.06-2.09-1.73-4.25-3.53-6.42-5.37C276.55,449,261.81,436,261.81,436l31.38-36,28,25.91,6.16,5.68s27.21-12.49,30.7-13.12S368.42,420.92,367.4,423.35Z" style="fill:#d3766a"></path><path d="M367.4,423.35c-1,2.42-48.08,56.09-51.17,57-1.43.42-13.26-9.11-25.52-19.43l30.51-35,6.16,5.68s27.21-12.49,30.7-13.12S368.42,420.92,367.4,423.35Z" style="fill:#fff"></path><path d="M367.4,423.35c-1,2.42-48.08,56.09-51.17,57-1.17.35-9.39-6-19.1-14.06l30.25-34.69s27.21-12.49,30.7-13.12S368.42,420.92,367.4,423.35Z" style="fill:#455a64"></path><path d="M364.58,422.23c-8.11,8.8-40,45.08-47.34,54.39-.06.08,0,.12.05.05,8.23-8.55,39.82-45.07,47.44-54.31C364.89,422.17,364.75,422.05,364.58,422.23Z" style="fill:#263238"></path><path d="M353.13,420.24a9.59,9.59,0,0,0-2.53,7.3,9.34,9.34,0,0,0,3,6.23c.06,0,.15-.06.1-.11a11.11,11.11,0,0,1-.5-13.33C353.3,420.26,353.19,420.16,353.13,420.24Z" style="fill:#263238"></path><path d="M331.33,428.9c-3.2,3.55-5.59,8.84-4.61,13.66,0,.19.3.13.34,0a66.54,66.54,0,0,1,4.77-13.32A.3.3,0,0,0,331.33,428.9Z" style="fill:#263238"></path><path d="M334.86,427.07c-3.21,3.55-5.6,8.84-4.62,13.66,0,.19.3.13.34,0a66.54,66.54,0,0,1,4.77-13.32A.3.3,0,0,0,334.86,427.07Z" style="fill:#263238"></path><path d="M338.38,425.24c-3.21,3.56-5.6,8.84-4.62,13.66,0,.19.3.13.34,0a66.54,66.54,0,0,1,4.77-13.32A.3.3,0,0,0,338.38,425.24Z" style="fill:#263238"></path><path d="M341.9,423.41c-3.21,3.56-5.6,8.85-4.62,13.67,0,.18.31.13.34,0a65.65,65.65,0,0,1,4.78-13.31A.3.3,0,0,0,341.9,423.41Z" style="fill:#263238"></path><path d="M310.7,466.84c-3.53,4.05,2.76,9.54,6.3,5.49S314.24,462.78,310.7,466.84Z" style="fill:#fff"></path><path d="M325.14,416.58c-3.11.5-3.65,4.09-3.06,6.59a25.17,25.17,0,0,0,6.33,11.35.13.13,0,0,0,.21,0,.58.58,0,0,0,.85-.39c.48-4.12,1.5-8.46.69-12.6C329.7,419.08,328.08,416.11,325.14,416.58Zm3.78,11.13c-.19,2-.47,4-.58,6.08-1.23-2.22-2.55-4.37-3.56-6.71a26.4,26.4,0,0,1-1.27-3.45c-.5-1.82-.41-8,3.82-4.92C329.66,420.41,329.14,425.29,328.92,427.71Z" style="fill:#263238"></path><path d="M321.9,444.63c3.23-2.71,5.18-6.73,7.4-10.23a.58.58,0,0,0-.42-.84c0-.08,0-.16-.14-.15a25.13,25.13,0,0,0-12.07,4.83c-2,1.58-3.87,4.7-1.77,7.05S320,446.22,321.9,444.63ZM318,445c-5.23-.27-1.41-5.13.13-6.23a25.72,25.72,0,0,1,3.16-1.87,73.9,73.9,0,0,1,7-3c-1.19,1.65-2.24,3.39-3.38,5.09C323.49,441,320.83,445.16,318,445Z" style="fill:#263238"></path><path d="M319.91,420.23l-32.79,40.52L185.57,383.7l-9.79-7.44s-2.94,1.81-7.34,4c-6.12,3.05-15.05,6.86-22.84,7.67-13.07,1.37-32.65.33-43-14.77-8.7-12.72-5.1-28.68-5.1-28.68L112,339s35-26.69,56.85-26.61c9.3,0,22.52,7.64,34.73,15.53S319.91,420.23,319.91,420.23Z" style="fill:#263238"></path><path d="M175.78,376.26s-2.94,1.81-7.34,4c-7.22-9.42-22.61-26.64-23.08-27.25Z" style="fill:#37474f"></path><path d="M124.81,330.07c-2.08,1.32-4.1,2.72-6.15,4.07s-4.09,2.58-6,4-3.82,3.1-5.68,4.71c-.9.78-1.78,1.57-2.65,2.38a22.48,22.48,0,0,0-2.54,2.53c-.07.09,0,.2.14.15a29.84,29.84,0,0,0,2.8-2.08l2.92-2.29c1.88-1.46,3.79-2.88,5.67-4.35s3.6-3.07,5.44-4.55,4.06-3.05,6.1-4.54C124.88,330.11,124.85,330,124.81,330.07Z" style="fill:#37474f"></path><path d="M312.69,418.42c-2.11,2.09-4.07,4.35-6,6.56s-3.95,4.45-5.91,6.69c-3.92,4.49-7.87,9-11.72,13.5-2.12,2.49-4.21,5-6.19,7.61-.09.12.1.26.2.16,4.18-4.23,8-8.77,12-13.25s7.82-9,11.67-13.55c2.1-2.49,4.27-5,6.22-7.58C312.94,418.46,312.78,418.33,312.69,418.42Z" style="fill:#37474f"></path><path d="M233.06,419.61c-5-4.32-16.53-12.84-21.76-16.91s-10.41-8.13-15.71-12.07c-1.52-1.14-3.05-2.25-4.58-3.36s-3.13-2.15-4.63-3.3c-.08-.07-.17.07-.08.14,1.37,1.08,2.66,2.27,4,3.38s2.57,2.14,3.86,3.19c2.53,2.05,5.09,4.06,7.65,6.07q7.77,6.15,15.69,12.1c3,2.25,12.24,8.92,15.31,11.07C233,420.05,233.23,419.76,233.06,419.61Z" style="fill:#37474f"></path><path d="M267.73,377.78c-4.64-4.19-15.28-12.32-20.17-16.22s-9.85-7.93-14.82-11.85L218,338.05c-4.77-3.77-9.52-7.59-14.59-11-2.77-1.84-5.62-3.57-8.56-5.13a56.36,56.36,0,0,0-8.9-4.09c-.09,0-.15.11-.07.16,2.5,1.54,5.14,2.86,7.68,4.35s5,3,7.39,4.63c5,3.35,9.76,7.11,14.5,10.84,9.87,7.75,19.7,15.52,29.64,23.17,5.56,4.28,16.63,13.11,22.43,17.07C267.67,378.21,267.9,377.93,267.73,377.78Z" style="fill:#37474f"></path></g></svg>
